<mxfile host="app.diagrams.net" agent="Mozilla/5.0 (Windows NT 10.0; Win64; x64) AppleWebKit/537.36 (KHTML, like Gecko) Chrome/140.0.0.0 Safari/537.36 Edg/140.0.0.0" version="28.2.5">
  <diagram name="Page-1" id="9KPdKtcACoM_GFBxQ4EV">
    <mxGraphModel dx="2229" dy="760" grid="0" gridSize="10" guides="1" tooltips="1" connect="1" arrows="1" fold="1" page="1" pageScale="1" pageWidth="850" pageHeight="1100" background="light-dark(#FFFFFF,#FFF3F3)" math="0" shadow="0">
      <root>
        <mxCell id="0" />
        <mxCell id="1" parent="0" />
        <mxCell id="EhkZEXSdakADHh1apIjV-5" value="User" style="shape=umlActor;verticalLabelPosition=bottom;verticalAlign=top;html=1;outlineConnect=0;strokeColor=light-dark(#000000,#171717);fontColor=light-dark(#000000,#0B0B0B);fillColor=light-dark(#FFFFFF,#272727);" vertex="1" parent="1">
          <mxGeometry x="620" y="127" width="30" height="60" as="geometry" />
        </mxCell>
        <mxCell id="EhkZEXSdakADHh1apIjV-49" style="edgeStyle=orthogonalEdgeStyle;rounded=0;orthogonalLoop=1;jettySize=auto;html=1;exitX=0.75;exitY=0.1;exitDx=0;exitDy=0;exitPerimeter=0;" edge="1" parent="1" source="EhkZEXSdakADHh1apIjV-6">
          <mxGeometry relative="1" as="geometry">
            <mxPoint x="633.2941463694856" y="361.9411764705883" as="targetPoint" />
          </mxGeometry>
        </mxCell>
        <mxCell id="EhkZEXSdakADHh1apIjV-6" value="Admin" style="shape=umlActor;verticalLabelPosition=bottom;verticalAlign=top;html=1;outlineConnect=0;strokeColor=light-dark(#000000,#171717);fontColor=light-dark(#000000,#0B0B0B);fillColor=light-dark(#FFFFFF,#3A3A3A);" vertex="1" parent="1">
          <mxGeometry x="620" y="355" width="30" height="60" as="geometry" />
        </mxCell>
        <mxCell id="EhkZEXSdakADHh1apIjV-11" value="Client" style="swimlane;whiteSpace=wrap;html=1;labelBorderColor=light-dark(#000000,#000000);strokeColor=light-dark(#000000,#5E5E5E);fillColor=light-dark(#FFFFFF,#2F2F2F);" vertex="1" parent="1">
          <mxGeometry x="309" y="53" width="253" height="508" as="geometry" />
        </mxCell>
        <mxCell id="EhkZEXSdakADHh1apIjV-18" value="" style="rounded=0;whiteSpace=wrap;html=1;fillColor=light-dark(#000000,#F7EBEB);strokeColor=light-dark(#000000,#5C5C5C);" vertex="1" parent="EhkZEXSdakADHh1apIjV-11">
          <mxGeometry x="75.5" y="61" width="120" height="129" as="geometry" />
        </mxCell>
        <mxCell id="EhkZEXSdakADHh1apIjV-21" value="Client Feature:&lt;div&gt;+ Chat with chatbot&lt;/div&gt;&lt;div&gt;+ View chat history&lt;/div&gt;" style="text;html=1;align=left;verticalAlign=middle;whiteSpace=wrap;rounded=0;fontColor=light-dark(#000000,#000000);" vertex="1" parent="EhkZEXSdakADHh1apIjV-11">
          <mxGeometry x="82.5" y="94" width="113" height="30" as="geometry" />
        </mxCell>
        <mxCell id="EhkZEXSdakADHh1apIjV-29" value="" style="group" vertex="1" connectable="0" parent="EhkZEXSdakADHh1apIjV-11">
          <mxGeometry x="75.5" y="273" width="120" height="129" as="geometry" />
        </mxCell>
        <mxCell id="EhkZEXSdakADHh1apIjV-20" value="" style="rounded=0;whiteSpace=wrap;html=1;fillColor=light-dark(#000000,#F7EBEB);strokeColor=light-dark(#000000,#5C5C5C);" vertex="1" parent="EhkZEXSdakADHh1apIjV-29">
          <mxGeometry width="120" height="129" as="geometry" />
        </mxCell>
        <mxCell id="EhkZEXSdakADHh1apIjV-22" value="Admin Feature:&lt;div&gt;+&amp;nbsp;&lt;span style=&quot;background-color: transparent;&quot;&gt;Document Management&lt;/span&gt;&lt;br&gt;&lt;/div&gt;&lt;div&gt;&lt;span style=&quot;background-color: transparent;&quot;&gt;+&amp;nbsp;&lt;/span&gt;&lt;span style=&quot;background-color: transparent;&quot;&gt;Upload Documents&lt;/span&gt;&lt;/div&gt;&lt;div&gt;&lt;span style=&quot;background-color: transparent;&quot;&gt;+ Analytic Dashboard&lt;/span&gt;&lt;/div&gt;" style="text;html=1;align=left;verticalAlign=middle;whiteSpace=wrap;rounded=0;fontColor=light-dark(#000000,#000000);" vertex="1" parent="EhkZEXSdakADHh1apIjV-29">
          <mxGeometry x="2" y="33" width="118" height="38" as="geometry" />
        </mxCell>
        <mxCell id="EhkZEXSdakADHh1apIjV-14" value="" style="endArrow=classic;startArrow=classic;html=1;rounded=0;strokeColor=light-dark(#000000,#313131);" edge="1" parent="EhkZEXSdakADHh1apIjV-11">
          <mxGeometry width="50" height="50" relative="1" as="geometry">
            <mxPoint x="229" y="106" as="sourcePoint" />
            <mxPoint x="309" y="106" as="targetPoint" />
          </mxGeometry>
        </mxCell>
        <mxCell id="EhkZEXSdakADHh1apIjV-24" value="Server" style="swimlane;whiteSpace=wrap;html=1;labelBorderColor=light-dark(#000000,#000000);strokeColor=light-dark(#000000,#5E5E5E);fillColor=light-dark(#FFFFFF,#2F2F2F);" vertex="1" parent="1">
          <mxGeometry x="-72" y="53" width="263" height="508" as="geometry" />
        </mxCell>
        <mxCell id="EhkZEXSdakADHh1apIjV-33" value="" style="rounded=0;whiteSpace=wrap;html=1;fillColor=light-dark(#000000,#F7EBEB);strokeColor=light-dark(#000000,#5C5C5C);" vertex="1" parent="EhkZEXSdakADHh1apIjV-24">
          <mxGeometry x="68" y="39" width="120" height="105" as="geometry" />
        </mxCell>
        <mxCell id="EhkZEXSdakADHh1apIjV-34" value="&lt;div&gt;User Service&lt;/div&gt;&lt;div&gt;+ Login/Register&lt;/div&gt;&lt;div&gt;+ JWT Token&lt;/div&gt;&lt;div&gt;+ Session Management&lt;/div&gt;" style="text;html=1;align=left;verticalAlign=middle;whiteSpace=wrap;rounded=0;fontColor=light-dark(#000000,#000000);" vertex="1" parent="EhkZEXSdakADHh1apIjV-24">
          <mxGeometry x="75" y="72" width="110" height="30" as="geometry" />
        </mxCell>
        <mxCell id="EhkZEXSdakADHh1apIjV-35" value="" style="rounded=0;whiteSpace=wrap;html=1;fillColor=light-dark(#FFFFFF, #f7ebeb);strokeColor=light-dark(#000000,#5C5C5C);" vertex="1" parent="EhkZEXSdakADHh1apIjV-24">
          <mxGeometry x="67.5" y="156" width="120" height="105" as="geometry" />
        </mxCell>
        <mxCell id="EhkZEXSdakADHh1apIjV-36" value="&lt;div&gt;&lt;span style=&quot;background-color: transparent;&quot;&gt;Chat Service&lt;/span&gt;&lt;/div&gt;&lt;div&gt;&lt;span style=&quot;background-color: transparent;&quot;&gt;+ Stream Message&lt;br&gt;&lt;/span&gt;&lt;/div&gt;" style="text;html=1;align=left;verticalAlign=middle;whiteSpace=wrap;rounded=0;fontColor=light-dark(#000000,#000000);" vertex="1" parent="EhkZEXSdakADHh1apIjV-24">
          <mxGeometry x="74.5" y="189" width="110" height="30" as="geometry" />
        </mxCell>
        <mxCell id="EhkZEXSdakADHh1apIjV-38" value="" style="rounded=0;whiteSpace=wrap;html=1;fillColor=light-dark(#000000,#F7EBEB);strokeColor=light-dark(#000000,#5C5C5C);" vertex="1" parent="EhkZEXSdakADHh1apIjV-24">
          <mxGeometry x="66.5" y="273" width="123" height="105" as="geometry" />
        </mxCell>
        <mxCell id="EhkZEXSdakADHh1apIjV-39" value="&lt;div&gt;History Service&lt;/div&gt;&lt;div&gt;+ Get Chat Session&lt;br&gt;+ List Chat History&lt;/div&gt;" style="text;html=1;align=left;verticalAlign=middle;whiteSpace=wrap;rounded=0;fontColor=light-dark(#000000,#000000);" vertex="1" parent="EhkZEXSdakADHh1apIjV-24">
          <mxGeometry x="73" y="310.5" width="110" height="30" as="geometry" />
        </mxCell>
        <mxCell id="EhkZEXSdakADHh1apIjV-41" value="" style="rounded=0;whiteSpace=wrap;html=1;fillColor=light-dark(#000000,#F7EBEB);strokeColor=light-dark(#000000,#5C5C5C);" vertex="1" parent="EhkZEXSdakADHh1apIjV-24">
          <mxGeometry x="66" y="388" width="123" height="105" as="geometry" />
        </mxCell>
        <mxCell id="EhkZEXSdakADHh1apIjV-42" value="&lt;div&gt;RAG Service&lt;/div&gt;&lt;div&gt;+ Generate Embedding&lt;/div&gt;&lt;div&gt;+ Store Embedding&lt;/div&gt;" style="text;html=1;align=left;verticalAlign=middle;whiteSpace=wrap;rounded=0;fontColor=light-dark(#000000,#000000);" vertex="1" parent="EhkZEXSdakADHh1apIjV-24">
          <mxGeometry x="68" y="425.5" width="129.5" height="30" as="geometry" />
        </mxCell>
        <mxCell id="EhkZEXSdakADHh1apIjV-15" value="" style="endArrow=classic;startArrow=classic;html=1;rounded=0;strokeColor=light-dark(#000000,#313131);" edge="1" parent="1">
          <mxGeometry width="50" height="50" relative="1" as="geometry">
            <mxPoint x="528" y="389.91" as="sourcePoint" />
            <mxPoint x="608" y="389.91" as="targetPoint" />
          </mxGeometry>
        </mxCell>
        <mxCell id="EhkZEXSdakADHh1apIjV-45" value="&lt;font style=&quot;color: light-dark(rgb(0, 0, 0), rgb(7, 7, 7));&quot;&gt;REST Api/Server Send Evnt&lt;/font&gt;" style="text;html=1;align=center;verticalAlign=middle;whiteSpace=wrap;rounded=0;" vertex="1" parent="1">
          <mxGeometry x="208" y="263" width="80" height="40" as="geometry" />
        </mxCell>
        <mxCell id="EhkZEXSdakADHh1apIjV-46" value="" style="endArrow=classic;html=1;rounded=0;strokeColor=light-dark(#000000,#292929);" edge="1" parent="1">
          <mxGeometry width="50" height="50" relative="1" as="geometry">
            <mxPoint x="298" y="321" as="sourcePoint" />
            <mxPoint x="200" y="321" as="targetPoint" />
          </mxGeometry>
        </mxCell>
        <mxCell id="EhkZEXSdakADHh1apIjV-48" value="" style="endArrow=classic;html=1;rounded=0;strokeColor=light-dark(#000000,#292929);" edge="1" parent="1">
          <mxGeometry width="50" height="50" relative="1" as="geometry">
            <mxPoint x="204" y="337" as="sourcePoint" />
            <mxPoint x="299" y="337" as="targetPoint" />
          </mxGeometry>
        </mxCell>
        <mxCell id="EhkZEXSdakADHh1apIjV-50" value="" style="shape=cylinder3;whiteSpace=wrap;html=1;boundedLbl=1;backgroundOutline=1;size=15;strokeColor=light-dark(#000000,#A2A2A2);fillColor=light-dark(#FFFFFF, #f7ebeb);" vertex="1" parent="1">
          <mxGeometry x="-65" y="668.5" width="158" height="192" as="geometry" />
        </mxCell>
        <mxCell id="EhkZEXSdakADHh1apIjV-51" value="" style="shape=cylinder3;whiteSpace=wrap;html=1;boundedLbl=1;backgroundOutline=1;size=15;strokeColor=light-dark(#000000,#A2A2A2);fillColor=light-dark(#FFFFFF, #f7ebeb);" vertex="1" parent="1">
          <mxGeometry x="151" y="665" width="158" height="192" as="geometry" />
        </mxCell>
        <mxCell id="EhkZEXSdakADHh1apIjV-52" value="&lt;font style=&quot;color: light-dark(rgb(0, 0, 0), rgb(37, 37, 37));&quot;&gt;Mysql DB&lt;/font&gt;" style="text;html=1;align=center;verticalAlign=middle;whiteSpace=wrap;rounded=0;" vertex="1" parent="1">
          <mxGeometry x="-16" y="630.5" width="60" height="30" as="geometry" />
        </mxCell>
        <mxCell id="EhkZEXSdakADHh1apIjV-53" value="&lt;font style=&quot;color: light-dark(rgb(0, 0, 0), rgb(37, 37, 37));&quot;&gt;Chroma DB&lt;/font&gt;" style="text;html=1;align=center;verticalAlign=middle;whiteSpace=wrap;rounded=0;" vertex="1" parent="1">
          <mxGeometry x="189.5" y="624" width="81" height="30" as="geometry" />
        </mxCell>
        <mxCell id="EhkZEXSdakADHh1apIjV-54" value="+ User&lt;div&gt;+ Message_Store&lt;/div&gt;&lt;div&gt;+ ChatSession&lt;/div&gt;&lt;div&gt;+ Document&lt;/div&gt;&lt;div&gt;+ Model&lt;/div&gt;&lt;div&gt;+ RagConfig&lt;/div&gt;" style="text;html=1;align=left;verticalAlign=middle;whiteSpace=wrap;rounded=0;fontColor=light-dark(#000000,#000000);" vertex="1" parent="1">
          <mxGeometry x="-36.5" y="745.5" width="129.5" height="30" as="geometry" />
        </mxCell>
        <mxCell id="EhkZEXSdakADHh1apIjV-55" value="+ Vector Embeddings&lt;br&gt;+ Metadata (e.g.,document_id, source)&lt;br&gt;+ Document Chunks&lt;br&gt;+ IDs" style="text;html=1;align=left;verticalAlign=middle;whiteSpace=wrap;rounded=0;fontColor=light-dark(#000000,#000000);" vertex="1" parent="1">
          <mxGeometry x="168" y="717" width="124" height="97" as="geometry" />
        </mxCell>
        <mxCell id="EhkZEXSdakADHh1apIjV-57" value="" style="endArrow=classic;html=1;rounded=0;strokeColor=light-dark(#000000,#292929);entryX=0.383;entryY=-0.046;entryDx=0;entryDy=0;entryPerimeter=0;" edge="1" parent="1" target="EhkZEXSdakADHh1apIjV-52">
          <mxGeometry width="50" height="50" relative="1" as="geometry">
            <mxPoint x="6" y="574" as="sourcePoint" />
            <mxPoint x="6" y="620" as="targetPoint" />
          </mxGeometry>
        </mxCell>
        <mxCell id="EhkZEXSdakADHh1apIjV-58" value="" style="endArrow=classic;html=1;rounded=0;strokeColor=light-dark(#000000,#292929);exitX=0.567;exitY=-0.05;exitDx=0;exitDy=0;exitPerimeter=0;" edge="1" parent="1" source="EhkZEXSdakADHh1apIjV-52">
          <mxGeometry width="50" height="50" relative="1" as="geometry">
            <mxPoint x="18" y="615" as="sourcePoint" />
            <mxPoint x="17" y="570" as="targetPoint" />
          </mxGeometry>
        </mxCell>
        <mxCell id="EhkZEXSdakADHh1apIjV-61" value="" style="endArrow=classic;html=1;rounded=0;strokeColor=light-dark(#000000,#292929);entryX=0;entryY=0.5;entryDx=0;entryDy=0;" edge="1" parent="1" target="EhkZEXSdakADHh1apIjV-53">
          <mxGeometry width="50" height="50" relative="1" as="geometry">
            <mxPoint x="109" y="584" as="sourcePoint" />
            <mxPoint x="233.75000000000023" y="603.9999999999999" as="targetPoint" />
          </mxGeometry>
        </mxCell>
        <mxCell id="EhkZEXSdakADHh1apIjV-62" value="" style="endArrow=classic;html=1;rounded=0;strokeColor=light-dark(#000000,#292929);exitX=0;exitY=0;exitDx=0;exitDy=0;" edge="1" parent="1" source="EhkZEXSdakADHh1apIjV-53">
          <mxGeometry width="50" height="50" relative="1" as="geometry">
            <mxPoint x="224.5" y="612.4999999999999" as="sourcePoint" />
            <mxPoint x="115" y="574" as="targetPoint" />
          </mxGeometry>
        </mxCell>
        <mxCell id="EhkZEXSdakADHh1apIjV-64" value="Model AI" style="swimlane;whiteSpace=wrap;html=1;labelBorderColor=light-dark(#000000,#000000);strokeColor=light-dark(#000000,#5E5E5E);fillColor=light-dark(#FFFFFF,#2F2F2F);" vertex="1" parent="1">
          <mxGeometry x="-457" y="56" width="263" height="350" as="geometry" />
        </mxCell>
        <mxCell id="EhkZEXSdakADHh1apIjV-65" value="" style="rounded=0;whiteSpace=wrap;html=1;fillColor=light-dark(#000000,#F7EBEB);strokeColor=light-dark(#000000,#5C5C5C);" vertex="1" parent="EhkZEXSdakADHh1apIjV-64">
          <mxGeometry x="71.5" y="45" width="120" height="105" as="geometry" />
        </mxCell>
        <mxCell id="EhkZEXSdakADHh1apIjV-66" value="&lt;div&gt;LLM model&lt;/div&gt;&lt;div&gt;+ Gemma 1b&lt;/div&gt;&lt;div&gt;+ Llama3.2 3B&lt;/div&gt;" style="text;html=1;align=left;verticalAlign=middle;whiteSpace=wrap;rounded=0;fontColor=light-dark(#000000,#000000);" vertex="1" parent="EhkZEXSdakADHh1apIjV-64">
          <mxGeometry x="78.5" y="78" width="110" height="30" as="geometry" />
        </mxCell>
        <mxCell id="EhkZEXSdakADHh1apIjV-72" value="" style="rounded=0;whiteSpace=wrap;html=1;fillColor=light-dark(#000000,#F7EBEB);strokeColor=light-dark(#000000,#5C5C5C);" vertex="1" parent="EhkZEXSdakADHh1apIjV-64">
          <mxGeometry x="71.5" y="192" width="123" height="105" as="geometry" />
        </mxCell>
        <mxCell id="EhkZEXSdakADHh1apIjV-73" value="&lt;div&gt;Embedding Model&lt;/div&gt;&lt;div&gt;+ bge-m3&lt;/div&gt;&lt;div&gt;+ nomic-embbed-text&lt;/div&gt;" style="text;html=1;align=left;verticalAlign=middle;whiteSpace=wrap;rounded=0;fontColor=light-dark(#000000,#000000);" vertex="1" parent="EhkZEXSdakADHh1apIjV-64">
          <mxGeometry x="73.5" y="229.5" width="129.5" height="30" as="geometry" />
        </mxCell>
        <mxCell id="EhkZEXSdakADHh1apIjV-74" value="" style="endArrow=classic;html=1;rounded=0;strokeColor=light-dark(#000000,#292929);" edge="1" parent="1">
          <mxGeometry width="50" height="50" relative="1" as="geometry">
            <mxPoint x="-81" y="238" as="sourcePoint" />
            <mxPoint x="-179" y="238" as="targetPoint" />
          </mxGeometry>
        </mxCell>
        <mxCell id="EhkZEXSdakADHh1apIjV-75" value="" style="endArrow=classic;html=1;rounded=0;strokeColor=light-dark(#000000,#292929);" edge="1" parent="1">
          <mxGeometry width="50" height="50" relative="1" as="geometry">
            <mxPoint x="-175" y="254" as="sourcePoint" />
            <mxPoint x="-80" y="254" as="targetPoint" />
          </mxGeometry>
        </mxCell>
        <mxCell id="EhkZEXSdakADHh1apIjV-77" value="Langchain Tool" style="swimlane;whiteSpace=wrap;html=1;labelBorderColor=light-dark(#000000,#000000);strokeColor=light-dark(#000000,#5E5E5E);fillColor=light-dark(#FFFFFF,#2F2F2F);" vertex="1" parent="1">
          <mxGeometry x="-457" y="448" width="263" height="113" as="geometry" />
        </mxCell>
        <mxCell id="EhkZEXSdakADHh1apIjV-78" value="" style="rounded=0;whiteSpace=wrap;html=1;fillColor=light-dark(#000000,#F7EBEB);strokeColor=light-dark(#000000,#5C5C5C);" vertex="1" parent="EhkZEXSdakADHh1apIjV-77">
          <mxGeometry x="71.5" y="45" width="120" height="42" as="geometry" />
        </mxCell>
        <mxCell id="EhkZEXSdakADHh1apIjV-79" value="&lt;div&gt;Wiki tool langchain&lt;/div&gt;" style="text;html=1;align=left;verticalAlign=middle;whiteSpace=wrap;rounded=0;fontColor=light-dark(#000000,#000000);" vertex="1" parent="EhkZEXSdakADHh1apIjV-77">
          <mxGeometry x="80" y="52" width="110" height="30" as="geometry" />
        </mxCell>
        <mxCell id="EhkZEXSdakADHh1apIjV-83" value="" style="endArrow=classic;html=1;rounded=0;strokeColor=light-dark(#000000,#292929);" edge="1" parent="1">
          <mxGeometry width="50" height="50" relative="1" as="geometry">
            <mxPoint x="-85" y="500" as="sourcePoint" />
            <mxPoint x="-183" y="500" as="targetPoint" />
          </mxGeometry>
        </mxCell>
        <mxCell id="EhkZEXSdakADHh1apIjV-84" value="" style="endArrow=classic;html=1;rounded=0;strokeColor=light-dark(#000000,#292929);" edge="1" parent="1">
          <mxGeometry width="50" height="50" relative="1" as="geometry">
            <mxPoint x="-179" y="516" as="sourcePoint" />
            <mxPoint x="-84" y="516" as="targetPoint" />
          </mxGeometry>
        </mxCell>
      </root>
    </mxGraphModel>
  </diagram>
</mxfile>
